<?xml version="1.0" encoding="UTF-8"?>
<svg width="394px" height="150px" viewBox="0 0 394 150" version="1.1" xmlns="http://www.w3.org/2000/svg" xmlns:xlink="http://www.w3.org/1999/xlink">
    <title>cqc1</title>
    <g id="Page-1" stroke="none" stroke-width="1" fill="none" fill-rule="evenodd">
        <g id="cqc1" transform="translate(5.000000, 5.000000)" stroke-width="9">
            <path d="M187,0 C223.29589,0 251,26.8333333 251,62.2045455 C251,80.5 243.460274,96.7045455 231.186301,107.856061 L231.186301,107.856061 L242.583562,123.886364 L222.419178,138 L209.969863,120.575758 C202.956164,123.015152 195.241096,124.409091 187,124.409091 C150.528767,124.409091 123,97.5757576 123,62.2045455 C123,26.8333333 150.528767,0 187,0 Z M187,26 C166.553398,26 151,41.4038462 151,62 C151,82.5961538 166.553398,98 187,98 C189.446602,98 191.718447,97.8269231 193.990291,97.3076923 L193.990291,97.3076923 L184.203883,83.6346154 L204.475728,69.6153846 L215.31068,84.8461538 C220.203883,78.7884615 223,70.8269231 223,62 C223,41.4038462 207.446602,26 187,26 Z" id="Combined-Shape" stroke="#0057B7" fill="#FFD700"></path>
            <path d="M65.9179104,129 C89.3955224,129 109.261194,118.159664 121,100.995798 L96.8,86 C90.1179104,95.7563025 78.9208955,102.079832 65.9179104,102.079832 C44.7880597,102.079832 28.7149254,86 28.7149254,64.5 C28.7149254,43 44.7880597,26.9201681 65.9179104,26.9201681 C78.9208955,26.9201681 90.1179104,33.2436975 96.8,43 L121,28.0042017 C109.261194,10.8403361 89.3955224,0 65.9179104,0 C28.3537313,0 0,27.8235294 0,64.5 C0,101.176471 28.3537313,129 65.9179104,129 Z" id="C" stroke="#FFD700" fill="#0057B7" fill-rule="nonzero"></path>
            <path d="M326.91791,129 C350.395522,129 370.261194,118.159664 382,100.995798 L357.8,86 C351.11791,95.7563025 339.920896,102.079832 326.91791,102.079832 C305.78806,102.079832 289.714925,86 289.714925,64.5 C289.714925,43 305.78806,26.9201681 326.91791,26.9201681 C339.920896,26.9201681 351.11791,33.2436975 357.8,43 L382,28.0042017 C370.261194,10.8403361 350.395522,0 326.91791,0 C289.353731,0 261,27.8235294 261,64.5 C261,101.176471 289.353731,129 326.91791,129 Z" id="C" stroke="#FFD700" fill="#0057B7" fill-rule="nonzero"></path>
        </g>
    </g>
</svg>